<?xml version="1.0" encoding="utf-8"?>
<!-- Generator: Adobe Illustrator 16.0.0, SVG Export Plug-In . SVG Version: 6.00 Build 0)  -->
<!DOCTYPE svg PUBLIC "-//W3C//DTD SVG 1.1//EN" "http://www.w3.org/Graphics/SVG/1.1/DTD/svg11.dtd">
<svg version="1.1"
	 id="svg2" inkscape:output_extension="org.inkscape.output.svg.inkscape" sodipodi:docname="BBC_Worldwide_Logo.svg" inkscape:version="0.48.2 r9819" sodipodi:version="0.32" xmlns:dc="http://purl.org/dc/elements/1.1/" xmlns:cc="http://creativecommons.org/ns#" xmlns:rdf="http://www.w3.org/1999/02/22-rdf-syntax-ns#" xmlns:svg="http://www.w3.org/2000/svg" xmlns:sodipodi="http://sodipodi.sourceforge.net/DTD/sodipodi-0.dtd" xmlns:inkscape="http://www.inkscape.org/namespaces/inkscape"
	 xmlns="http://www.w3.org/2000/svg" xmlns:xlink="http://www.w3.org/1999/xlink" x="0px" y="0px" width="1000px"
	 height="751.293px" viewBox="-400 -300.493 1000 751.293" enable-background="new -400 -300.493 1000 751.293"
	 xml:space="preserve">
<defs>
	
	
		<inkscape:perspective  inkscape:persp3d-origin="372.04724 : 350.78739 : 1" id="perspective10" inkscape:vp_z="744.09448 : 526.18109 : 1" inkscape:vp_y="0 : 1000 : 0" inkscape:vp_x="0 : 526.18109 : 1" sodipodi:type="inkscape:persp3d">
		</inkscape:perspective>
	
		<inkscape:perspective  inkscape:persp3d-origin="93.542999 : 18.537333 : 1" id="perspective2485" inkscape:vp_z="187.086 : 27.806 : 1" inkscape:vp_y="0 : 1000 : 0" inkscape:vp_x="0 : 27.806 : 1" sodipodi:type="inkscape:persp3d">
		</inkscape:perspective>
	
		<inkscape:perspective  inkscape:persp3d-origin="372.04724 : 350.78739 : 1" id="perspective2546" inkscape:vp_z="744.09448 : 526.18109 : 1" inkscape:vp_y="0 : 1000 : 0" inkscape:vp_x="0 : 526.18109 : 1" sodipodi:type="inkscape:persp3d">
		</inkscape:perspective>
	
		<inkscape:perspective  inkscape:persp3d-origin="372.04724 : 350.78739 : 1" id="perspective2615" inkscape:vp_z="744.09448 : 526.18109 : 1" inkscape:vp_y="0 : 1000 : 0" inkscape:vp_x="0 : 526.18109 : 1" sodipodi:type="inkscape:persp3d">
		</inkscape:perspective>
	
		<inkscape:perspective  inkscape:persp3d-origin="372.04724 : 350.78739 : 1" id="perspective2461" inkscape:vp_z="744.09448 : 526.18109 : 1" inkscape:vp_y="0 : 1000 : 0" inkscape:vp_x="0 : 526.18109 : 1" sodipodi:type="inkscape:persp3d">
		</inkscape:perspective>
	
		<inkscape:perspective  inkscape:persp3d-origin="372.04724 : 350.78739 : 1" id="perspective2526" inkscape:vp_z="744.09448 : 526.18109 : 1" inkscape:vp_y="0 : 1000 : 0" inkscape:vp_x="0 : 526.18109 : 1" sodipodi:type="inkscape:persp3d">
		</inkscape:perspective>
	
		<inkscape:perspective  inkscape:persp3d-origin="372.04724 : 350.78739 : 1" id="perspective2576" inkscape:vp_z="744.09448 : 526.18109 : 1" inkscape:vp_y="0 : 1000 : 0" inkscape:vp_x="0 : 526.18109 : 1" sodipodi:type="inkscape:persp3d">
		</inkscape:perspective>
	
		<inkscape:perspective  inkscape:persp3d-origin="372.04724 : 350.78739 : 1" id="perspective2740" inkscape:vp_z="744.09448 : 526.18109 : 1" inkscape:vp_y="0 : 1000 : 0" inkscape:vp_x="0 : 526.18109 : 1" sodipodi:type="inkscape:persp3d">
		</inkscape:perspective>
	
		<inkscape:perspective  inkscape:persp3d-origin="372.04724 : 350.78739 : 1" id="perspective2950" inkscape:vp_z="744.09448 : 526.18109 : 1" inkscape:vp_y="0 : 1000 : 0" inkscape:vp_x="0 : 526.18109 : 1" sodipodi:type="inkscape:persp3d">
		</inkscape:perspective>
	
		<inkscape:perspective  inkscape:persp3d-origin="93.542999 : 18.537333 : 1" id="perspective2863" inkscape:vp_z="187.086 : 27.806 : 1" inkscape:vp_y="0 : 1000 : 0" inkscape:vp_x="0 : 27.806 : 1" sodipodi:type="inkscape:persp3d">
		</inkscape:perspective>
</defs>
<sodipodi:namedview  inkscape:window-maximized="1" fit-margin-right="0.1" fit-margin-bottom="0.1" inkscape:window-y="-8" inkscape:window-x="-8" inkscape:window-height="1028" inkscape:window-width="1920" inkscape:current-layer="layer1" inkscape:document-units="px" inkscape:pageshadow="2" inkscape:pageopacity="0.0" fit-margin-top="0.1" fit-margin-left="0.1" showgrid="false" inkscape:cy="-19.326427" inkscape:cx="493.33303" inkscape:zoom="1.0034479" objecttolerance="10" guidetolerance="10" gridtolerance="10000" borderopacity="1.0" bordercolor="#666666" pagecolor="#ffffff" id="base">
	<inkscape:grid  type="xygrid" snapvisiblegridlinesonly="true" empspacing="5" enabled="true" visible="true" id="grid2500">
		</inkscape:grid>
</sodipodi:namedview>
<g>
	
		<linearGradient id="rect2997_1_" gradientUnits="userSpaceOnUse" x1="-325.3506" y1="-719.5732" x2="640.6148" y2="6.1522" gradientTransform="matrix(1.0352 0 0 -1.0352 -63.1863 -294.1233)">
		<stop  offset="0" style="stop-color:#ED0072"/>
		<stop  offset="0.2" style="stop-color:#C8007A"/>
		<stop  offset="0.4" style="stop-color:#A4127D"/>
		<stop  offset="0.6031" style="stop-color:#731B81"/>
		<stop  offset="0.8" style="stop-color:#452286"/>
		<stop  offset="1" style="stop-color:#042487"/>
	</linearGradient>
	<rect id="rect2997" x="-400" y="-300.493" fill="url(#rect2997_1_)" width="1000" height="751.293"/>
	<g id="g3125">
		<path id="path3068" inkscape:connector-curvature="0" fill="#FFFFFF" d="M-88.571,157.891c-1.789-0.049-3.502,0.037-5.18,0.166
			c-12.018,0.914-20.813,4.791-28.824,12.787c-5.11,5.107-7.8,9.383-9.875,15.543c-1.31,3.893-1.953,6.785-2.268,11.174
			c-0.68,9.568,1.385,18.729,5.828,25.748c7.508,11.855,19.482,19.063,33.681,20.234c4.04,0.342,4.404,0.326,8.741,0
			c7.072-0.527,12.523-1.916,17.975-4.691c4.488-2.287,7.521-4.443,11.334-8.26c7.979-7.977,11.654-17.26,11.658-29.141
			c0.002-4.795-0.221-7.566-1.133-11.338c-3.303-13.611-13.459-24.764-26.879-29.631C-77.587,159.006-83.209,158.037-88.571,157.891
			L-88.571,157.891z M-90.514,172.789c2.692,0.027,5.464,0.412,8.258,1.135c9.249,2.383,16.938,10.078,19.267,19.428
			c0.52,2.131,0.643,3.383,0.648,7.287c0.004,5.18-0.422,7.352-1.943,11.176c-3.196,8.025-10.267,13.738-19.105,15.701
			c-2.356,0.523-9.139,0.854-11.496,0.486c-6.021-0.951-10.768-3.277-14.896-7.123c-3.567-3.326-5.944-7.248-7.448-12.469
			c-0.574-1.982-0.658-2.82-0.647-7.771c0.015-4.721,0.14-5.758,0.647-7.609c1.25-4.555,3.269-8.406,6.314-11.822
			C-105.958,175.643-98.595,172.695-90.514,172.789L-90.514,172.789z"/>
		<path id="path3064" inkscape:connector-curvature="0" fill="#FFFFFF" d="M200.625,242.963
			c-0.214-0.516-8.558-19.674-18.544-42.568c-9.979-22.902-18.215-41.801-18.299-41.994c-0.117-0.279,1.746-0.354,8.75-0.354h8.895
			l0.357,0.779c0.195,0.43,5,11.588,10.678,24.795c11.037,25.684,10.959,25.508,11.174,25.123c0.07-0.139,4.89-11.604,10.7-25.482
			l10.563-25.227l6.203,0.07l6.202,0.074l10.488,25.348c5.767,13.941,10.566,25.293,10.669,25.234
			c0.093-0.063,5.057-11.502,11.021-25.414l10.84-25.311h8.857c4.879,0,8.861,0.039,8.861,0.1c0,0.049-8.313,19.336-18.471,42.844
			l-18.465,42.748l-2.674,0.068l-2.672,0.078l-12.289-29.16c-6.76-16.031-12.377-29.203-12.482-29.268
			c-0.1-0.063-5.67,13.021-12.366,29.078l-12.177,29.193l-2.717,0.078l-2.717,0.068l-0.388-0.928V242.963z"/>
		<path id="path3062" inkscape:connector-curvature="0" fill="#FFFFFF" d="M468.303,156.434c-6.421,0.412-12.798,2.229-17.651,5.348
			c-6.159,3.955-11.035,9.418-14.247,16.188c-3.037,6.414-4.375,13.531-4.375,21.535c0,10.705,2.536,19.641,7.937,27.527
			c3.013,4.4,8.716,9.668,13.115,12.143c3.386,1.906,8.919,3.617,14.09,4.213c3.068,0.352,13.432,0.039,16.833-0.488
			c7.098-1.094,13.396-3.467,19.595-7.283l2.43-1.457v-8.098c0-4.434-0.103-8.102-0.161-8.102c-0.069,0-1.158,0.77-2.43,1.625
			c-5.176,3.48-11.545,6.25-17.972,7.611c-4.111,0.869-11.589,0.963-15.22,0.32c-11.022-1.93-18.798-9.457-21.052-20.563
			c-0.314-1.531-0.485-3.332-0.485-4.045v-1.457h29.309h29.468v-3.24c0-18.027-7.734-32.363-21.047-38.697
			c-5.216-2.482-11.722-3.482-18.133-3.08H468.303z M469.763,170.844c1.817-0.076,3.567,0.129,4.852,0.326
			c9.245,1.455,15.305,8.285,16.354,18.619l0.162,1.783h-21.046c-11.615,0-21.215-0.043-21.215-0.16
			c0.01-0.881,1.291-5.182,2.104-7.127c2.745-6.531,7.732-11.148,13.931-12.791C466.071,171.186,467.933,170.926,469.763,170.844
			L469.763,170.844z"/>
		<path id="path3058" inkscape:connector-curvature="0" fill="#FFFFFF" d="M-263.587,242.381
			c-0.076-0.195-11.557-28.936-25.516-63.873c-13.96-34.938-25.442-63.682-25.521-63.877c-0.107-0.279,1.815-0.357,9.057-0.357
			h9.193l17.479,43.912c9.611,24.148,17.561,43.91,17.662,43.91c0.104,0,8.084-19.727,17.737-43.844l17.552-43.836h8.702h8.706
			l17.686,43.975c9.727,24.189,17.77,43.887,17.869,43.775c0.098-0.127,7.906-19.846,17.348-43.838
			c9.441-23.996,17.262-43.721,17.383-43.844c0.119-0.121,4.231-0.188,9.146-0.141l8.936,0.066l-25.677,64.094l-25.678,64.092
			l-2.093,0.068l-2.092,0.078l-20.749-51.875c-11.412-28.529-20.828-51.822-20.924-51.758c-0.089,0.059-9.594,23.396-21.102,51.857
			l-20.925,51.75h-2.021c-1.357,0-2.066-0.121-2.158-0.355V242.381z"/>
		<path id="path3056" inkscape:connector-curvature="0" fill="#FFFFFF" d="M-29.89,200.248v-42.203h8.341h8.339l0.074,9.561
			l0.072,9.572l2.121-3.244c5.539-8.477,11.404-14.156,16.971-16.424c6.977-2.854,15.816-0.17,24.4,7.41l1.066,0.938l-3.988,6.678
			c-2.195,3.676-4.177,6.98-4.406,7.336l-0.418,0.65l-1.551-1.422c-1.927-1.77-5.742-4.336-7.775-5.234
			c-2.123-0.939-4.955-1.611-6.784-1.605c-7.755,0.025-15.356,6.932-18.378,16.723c-1.326,4.301-1.397,5.82-1.4,30.375v23.096
			h-8.343h-8.344v-42.205H-29.89z"/>
		<path id="path3054" inkscape:connector-curvature="0" fill="#FFFFFF" d="M42.734,178.363v-64.09h8.2h8.203v64.09v64.09h-8.203
			h-8.2V178.363z"/>
		<path id="path3052" inkscape:connector-curvature="0" fill="#FFFFFF" d="M136.667,114.336v22.51c0,12.4-0.074,22.578-0.156,22.668
			c-0.089,0.084-1.33-0.297-2.92-0.811c-17.707-5.734-35.567-1.457-46.309,11.006c-6.959,8.084-10.202,17.498-10.201,29.309
			c0.004,14.369,4.248,25.297,13.117,33.52c3.436,3.184,8.461,6.195,12.791,7.607c2.922,0.955,7.645,1.713,11.174,1.941
			c1.79,0.119,11.213,0.305,21.047,0.328h17.977v-64.121v-63.957h-8.262H136.667L136.667,114.336z M121.935,170.688
			c4.292,0.146,8.738,1.182,12.951,3.074l1.781,0.807v26.717v26.717l-10.523-0.158c-5.792-0.023-11.031,0.045-11.66,0
			c-5.795-0.533-9.402-2.174-12.951-5.67c-2.704-2.664-4.348-5.047-5.506-8.094c-4.008-10.557-2.578-24.711,3.238-32.873
			c1.42-1.986,4.428-5.025,6.315-6.316c3.274-2.229,7.274-3.518,12.141-4.047C119.124,170.697,120.508,170.639,121.935,170.688
			L121.935,170.688z"/>
		<path id="path3048" inkscape:connector-curvature="0" fill="#FFFFFF" d="M307.012,200.248v-42.203h8.202h8.201v42.203v42.205
			h-8.201h-8.202V200.248z"/>
		<path id="path3046" inkscape:connector-curvature="0" fill="#FFFFFF" d="M398.724,114.336v22.51c0,12.4-0.078,22.578-0.164,22.668
			c-0.086,0.084-1.486-0.297-3.078-0.811c-17.705-5.734-35.403-1.457-46.143,11.006c-6.959,8.084-10.367,17.498-10.361,29.309
			c0,14.369,4.402,25.297,13.273,33.52c3.438,3.184,8.46,6.195,12.793,7.607c2.917,0.955,7.48,1.713,11.011,1.941
			c1.789,0.119,11.37,0.305,21.214,0.328h17.81v-64.121v-63.957h-8.099H398.724L398.724,114.336z M383.986,170.688
			c4.288,0.146,8.579,1.182,12.793,3.074l1.944,0.807v26.717v26.717l-10.527-0.158c-5.796-0.023-11.036-0.117-11.658-0.166
			c-5.791-0.527-9.565-2.008-13.113-5.504c-2.707-2.664-4.189-5.047-5.346-8.094c-4.009-10.557-2.739-24.711,3.078-32.871
			c1.418-1.988,4.595-5.027,6.478-6.314c3.278-2.232,7.109-3.521,11.979-4.051C381.011,170.697,382.556,170.639,383.986,170.688
			L383.986,170.688z"/>
		<path id="path2982" inkscape:connector-curvature="0" fill="#FFFFFF" d="M311.698,141.439c-1.99-0.84-4.139-2.846-5.205-4.854
			c-0.674-1.266-0.76-1.73-0.76-4.266c0-2.438,0.086-3.023,0.662-4.09c1.002-1.885,3.039-3.908,4.818-4.785
			c1.361-0.672,1.945-0.783,4-0.783c2.004,0,2.664,0.127,3.986,0.746c5.143,2.42,7.273,8.402,4.768,13.338
			c-2.205,4.342-7.92,6.525-12.273,4.693H311.698z"/>
	</g>
	<g id="g3100" transform="matrix(0.40508788,0,0,0.40508788,92.893973,98.055559)">
		<g id="g3102" transform="matrix(0.82302261,0,0,-0.82302261,189.63913,997.27701)">
			<path id="path3104" inkscape:connector-curvature="0" fill="#FFFFFF" d="M-130.029,1542.76c0-58.291-72.543-54.838-72.543-54.838
				h-72.537v105.356h72.537C-127.864,1593.703-130.029,1542.76-130.029,1542.76 M-275.109,1753.894h55.267
				c57.426-3.027,55.273-45.76,55.273-45.76c0-53.115-63.477-53.979-63.477-53.979h-47.062V1753.894z M-143.412,1633.431
				c0,0,49.649,21.156,49.209,77.288c0,0,7.566,91.964-114.306,103.196h-135.255v-385.579h155.01c0,0,129.532-0.432,129.532,108.807
				C-59.223,1537.143-56.206,1611.411-143.412,1633.431 M-493.385,1889.465H75.921v-536.491h-569.306V1889.465z"/>
		</g>
		<g id="g3106" transform="matrix(0.82302261,0,0,-0.82302261,85.355129,997.27701)">
			<path id="path3108" inkscape:connector-curvature="0" fill="#FFFFFF" d="M-659.847,1542.76c0-58.291-72.54-54.838-72.54-54.838
				h-72.528v105.356h72.528C-657.685,1593.703-659.847,1542.76-659.847,1542.76 M-804.915,1753.894h55.267
				c57.426-3.027,55.267-45.76,55.267-45.76c0-53.115-63.474-53.979-63.474-53.979h-47.059V1753.894z M-673.227,1633.431
				c0,0,49.649,21.156,49.224,77.288c0,0,7.548,91.964-114.321,103.196h-135.247v-385.579h155.01c0,0,129.532-0.432,129.532,108.807
				C-589.029,1537.143-586.009,1611.411-673.227,1633.431 M-1023.203,1889.465h569.32v-536.491h-569.32V1889.465z"/>
		</g>
		<g id="g3110" transform="matrix(0.82302261,0,0,-0.82302261,308.1885,958.5961)">
			<path id="path3112" inkscape:connector-curvature="0" fill="#FFFFFF" d="M472.255,1739.274v-71.241
				c0,0-69.517,42.74-146.369,43.607c0,0-143.349,2.8-149.828-137.42c0,0-5.19-128.987,148.097-136.333
				c0,0,64.327-7.77,151.556,47.932v-73.836c0,0-117.016-69.513-252.594-15.974c0,0-113.987,41.658-118.313,178.211
				c0,0-4.745,140.44,147.247,187.072c0,0,40.58,15.548,113.557,8.635C365.608,1769.928,409.211,1765.61,472.255,1739.274
				 M19.089,1305.975h569.3v536.491h-569.3V1305.975z"/>
		</g>
	</g>
</g>
</svg>
