<?xml version="1.0" encoding="utf-8"?>
<!-- Generator: Adobe Illustrator 15.0.0, SVG Export Plug-In . SVG Version: 6.00 Build 0)  -->
<!DOCTYPE svg PUBLIC "-//W3C//DTD SVG 1.1//EN" "http://www.w3.org/Graphics/SVG/1.1/DTD/svg11.dtd">
<svg version="1.1"
	 id="svg2985" sodipodi:docname="EFL_logo_(shield).png" inkscape:version="0.48.5 r10040" xmlns:dc="http://purl.org/dc/elements/1.1/" xmlns:cc="http://creativecommons.org/ns#" xmlns:rdf="http://www.w3.org/1999/02/22-rdf-syntax-ns#" xmlns:svg="http://www.w3.org/2000/svg" xmlns:sodipodi="http://sodipodi.sourceforge.net/DTD/sodipodi-0.dtd" xmlns:inkscape="http://www.inkscape.org/namespaces/inkscape"
	 xmlns="http://www.w3.org/2000/svg" xmlns:xlink="http://www.w3.org/1999/xlink" x="0px" y="0px" width="506.539px"
	 height="735.146px" viewBox="131.938 119.523 506.539 735.146" enable-background="new 131.938 119.523 506.539 735.146"
	 xml:space="preserve">
<sodipodi:namedview  id="namedview2987" inkscape:current-layer="svg2985" inkscape:window-y="-8" inkscape:window-x="-8" fit-margin-bottom="0" fit-margin-right="0" inkscape:window-height="706" inkscape:window-width="1366" inkscape:pageshadow="2" inkscape:pageopacity="0" inkscape:cy="849.47659" inkscape:cx="-220.2132" inkscape:zoom="0.5" fit-margin-left="0" fit-margin-top="0" showgrid="false" guidetolerance="10" gridtolerance="10" objecttolerance="10" borderopacity="1" bordercolor="#666666" pagecolor="#ffffff" inkscape:window-maximized="1">
	</sodipodi:namedview>
<g id="g3297" transform="matrix(0.44167864,0,0,0.44167864,15.947552,12.592165)">
	<g id="g3044">
		<path id="path2995" inkscape:connector-curvature="0" fill="#001189" d="M447.107,587.839c0,37.461-29.349,67.83-65.552,67.83
			c-36.206,0-65.555-30.368-65.555-67.83s29.349-67.83,65.555-67.83C417.758,520.009,447.107,550.377,447.107,587.839
			L447.107,587.839z"/>
		<path id="path2998" inkscape:connector-curvature="0" fill="#001189" d="M624.111,583.793c0,43.909-34.399,79.504-76.833,79.504
			c-42.436,0-76.835-35.595-76.835-79.504c0-43.906,34.399-79.502,76.835-79.502C589.712,504.291,624.111,539.886,624.111,583.793z"
			/>
		<path id="path3000" inkscape:connector-curvature="0" fill="#001189" d="M778.235,672.455c0,46.542-36.462,84.271-81.441,84.271
			s-81.441-37.729-81.441-84.271c0-46.54,36.462-84.269,81.441-84.269S778.235,625.915,778.235,672.455z"/>
		<path id="path3002" inkscape:connector-curvature="0" fill="#001189" d="M553.371,736.561c0,41.673-32.65,75.458-72.924,75.458
			c-40.276,0-72.926-33.784-72.926-75.458c0-41.673,32.65-75.458,72.926-75.458C520.721,661.103,553.371,694.888,553.371,736.561
			L553.371,736.561z"/>
		<path id="path3004" inkscape:connector-curvature="0" fill="#001189" d="M392.263,720.354c0,33.776-26.89,61.157-60.058,61.157
			c-33.17,0-60.058-27.381-60.058-61.157c0-33.776,26.888-61.157,60.058-61.157C365.373,659.197,392.263,686.579,392.263,720.354z"
			/>
		<path id="path3006" inkscape:connector-curvature="0" fill="#001189" d="M689.708,824.496c0,40.747-32.438,73.777-72.453,73.777
			c-40.013,0-72.451-33.031-72.451-73.777c0-40.745,32.438-73.777,72.451-73.777C657.27,750.718,689.708,783.749,689.708,824.496z"
			/>
		<path id="path3008" inkscape:connector-curvature="0" fill="#001189" d="M377.146,855.731c0,32.723-25.639,59.249-57.268,59.249
			c-31.626,0-57.266-26.526-57.266-59.249s25.639-59.251,57.266-59.251C351.507,796.48,377.146,823.008,377.146,855.731z"/>
		<path id="path3010-9" inkscape:connector-curvature="0" fill="#001189" d="M512.395,886.236c0,33.778-26.466,61.159-59.109,61.159
			c-32.646,0-59.109-27.381-59.109-61.159c0-33.776,26.464-61.157,59.109-61.157C485.929,825.079,512.395,852.461,512.395,886.236z"
			/>
		<path id="path3012" inkscape:connector-curvature="0" fill="#001189" d="M628.703,960.6c0,33.776-26.466,61.157-59.109,61.157
			c-32.646,0-59.11-27.381-59.11-61.157c0-33.778,26.464-61.159,59.11-61.159C602.237,899.441,628.703,926.822,628.703,960.6z"/>
		<path id="path3014" inkscape:connector-curvature="0" fill="#001189" d="M621.075,1086.772c0,28.328-22.623,51.293-50.529,51.293
			c-27.908,0-50.531-22.966-50.531-51.293c0-28.33,22.623-51.294,50.531-51.294C598.452,1035.478,621.075,1058.442,621.075,1086.772
			z"/>
		<path id="path3016" inkscape:connector-curvature="0" fill="#001189" d="M504.503,1014.725c0,28.553-22.623,51.7-50.531,51.7
			c-27.905,0-50.529-23.147-50.529-51.7c0-28.555,22.623-51.703,50.529-51.703C481.88,963.023,504.503,986.17,504.503,1014.725z"/>
		<path id="path3018" inkscape:connector-curvature="0" fill="#001189" d="M386.651,975.577c0,28.553-22.623,51.7-50.531,51.7
			c-27.905,0-50.529-23.147-50.529-51.7c0-28.555,22.623-51.703,50.529-51.703C364.028,923.875,386.651,947.022,386.651,975.577z"/>
		<path id="path3020" inkscape:connector-curvature="0" fill="#001189" d="M407.039,1068.818c0,21.496-17.144,38.918-38.295,38.918
			c-21.148,0-38.295-17.423-38.295-38.918c0-21.493,17.146-38.918,38.295-38.918C389.895,1029.9,407.039,1047.325,407.039,1068.818z
			"/>
		<path id="path3022" inkscape:connector-curvature="0" fill="#001189" d="M513.883,1114.9c0,21.493-17.146,38.918-38.297,38.918
			c-21.148,0-38.295-17.425-38.295-38.918c0-21.495,17.146-38.918,38.295-38.918C496.736,1075.982,513.883,1093.405,513.883,1114.9z
			"/>
		<path id="path3024" inkscape:connector-curvature="0" fill="#001189" d="M436.402,1141.627c0,17.542-13.994,31.766-31.257,31.766
			s-31.257-14.224-31.257-31.766c0-17.545,13.994-31.766,31.257-31.766S436.402,1124.083,436.402,1141.627z"/>
		<path id="path3026" inkscape:connector-curvature="0" fill="#001189" d="M480.507,1198.309c0,16.417-13.096,29.727-29.25,29.727
			c-16.156,0-29.252-13.31-29.252-29.727s13.096-29.727,29.252-29.727C467.411,1168.582,480.507,1181.892,480.507,1198.309z"/>
		<path id="path3028" inkscape:connector-curvature="0" fill="#001189" d="M551.877,1191.988c0,16.306-13.005,29.524-29.048,29.524
			c-16.045,0-29.051-13.218-29.051-29.524c0-16.304,13.005-29.522,29.051-29.522
			C538.872,1162.466,551.877,1175.684,551.877,1191.988z"/>
		<path id="path3030" inkscape:connector-curvature="0" fill="#001189" d="M640.705,1184.225c0,21.493-17.146,38.918-38.295,38.918
			c-21.151,0-38.297-17.425-38.297-38.918c0-21.496,17.146-38.918,38.297-38.918
			C623.558,1145.306,640.705,1162.729,640.705,1184.225z"/>
		<path id="path3032" inkscape:connector-curvature="0" fill="#001189" d="M600.813,1269.062c0,16.304-13.007,29.522-29.051,29.522
			c-16.043,0-29.051-13.218-29.051-29.522c0-16.306,13.007-29.524,29.051-29.524
			C587.806,1239.538,600.813,1252.755,600.813,1269.062z"/>
		<path id="path3034" inkscape:connector-curvature="0" fill="#001189" d="M675.847,1262.362c0,17.334-13.828,31.388-30.886,31.388
			s-30.886-14.053-30.886-31.388c0-17.334,13.828-31.388,30.886-31.388S675.847,1245.028,675.847,1262.362z"/>
		<path id="path3036" inkscape:connector-curvature="0" fill="#001189" d="M533.528,1253.653c0,12.3-9.81,22.269-21.913,22.269
			s-21.913-9.969-21.913-22.269s9.81-22.269,21.913-22.269S533.528,1241.353,533.528,1253.653z"/>
		<path id="path3038" inkscape:connector-curvature="0" fill="#001189" d="M637.974,1315.23c0,11.398-9.092,20.638-20.308,20.638
			c-11.216,0-20.308-9.24-20.308-20.638c0-11.4,9.092-20.64,20.308-20.64C628.882,1294.59,637.974,1303.83,637.974,1315.23z"/>
		<path id="path3040" inkscape:connector-curvature="0" fill="#001189" d="M710.918,1321.425c0,15.046-12.004,27.244-26.809,27.244
			s-26.806-12.198-26.806-27.244s12.001-27.244,26.806-27.244S710.918,1306.379,710.918,1321.425z"/>
		<path id="path3042" inkscape:connector-curvature="0" fill="#001189" d="M759.496,1349.255c0,10.597-8.453,19.189-18.882,19.189
			c-10.427,0-18.88-8.592-18.88-19.189s8.453-19.187,18.88-19.187C751.044,1330.068,759.496,1338.658,759.496,1349.255z"/>
	</g>
	<g id="g3194">
		<g id="g3168">
			<path id="path3072" inkscape:connector-curvature="0" fill="#001189" d="M1233.288,595.412
				c-34.448-14.723-50.838-53.646-36.61-86.937s53.688-48.344,88.136-33.621c34.448,14.721,50.838,53.644,36.61,86.935
				C1307.195,595.08,1267.735,610.135,1233.288,595.412z"/>
			<path id="path3074" inkscape:connector-curvature="0" fill="#001189" d="M1144.61,745.082
				c-40.375-17.257-59.587-62.877-42.909-101.897c16.676-39.02,62.926-56.664,103.301-39.407
				c40.375,17.255,59.587,62.877,42.909,101.897C1231.236,744.695,1184.986,762.337,1144.61,745.082L1144.61,745.082z"/>
			<path id="path3076" inkscape:connector-curvature="0" fill="#001189" d="M994.358,837.28
				c-42.797-18.29-63.16-66.647-45.483-108.006c17.675-41.359,66.698-60.06,109.494-41.771
				c42.797,18.292,63.16,66.647,45.483,108.006C1086.175,836.869,1037.152,855.569,994.358,837.28z"/>
			<path id="path3078" inkscape:connector-curvature="0" fill="#001189" d="M1041.722,608.578
				c-38.321-16.377-56.556-59.676-40.727-96.712c15.826-37.035,59.724-53.779,98.046-37.402
				c38.319,16.377,56.554,59.678,40.727,96.712C1123.939,608.211,1080.044,624.957,1041.722,608.578z"/>
			<path id="path3080" inkscape:connector-curvature="0" fill="#001189" d="M1139.514,481.482
				c-31.058-13.273-45.669-48.76-32.635-79.261c13.036-30.499,48.782-44.464,79.84-31.191c31.058,13.275,45.669,48.76,32.635,79.261
				C1206.318,480.792,1170.572,494.757,1139.514,481.482L1139.514,481.482z"/>
			<path id="path3082" inkscape:connector-curvature="0" fill="#001189" d="M904.02,681.445
				c-37.468-16.014-55.092-58.822-39.367-95.618c15.725-36.794,58.846-53.639,96.314-37.627
				c37.468,16.012,55.094,58.822,39.367,95.616C984.609,680.611,941.488,697.457,904.02,681.445L904.02,681.445z"/>
			<path id="path3084" inkscape:connector-curvature="0" fill="#001189" d="M1032.39,401.33
				c-30.09-12.859-44.406-46.86-31.978-75.944c12.43-29.082,46.898-42.233,76.99-29.373c30.09,12.859,44.406,46.863,31.976,75.944
				C1096.949,401.041,1062.479,414.189,1032.39,401.33L1032.39,401.33z"/>
			<path id="path3086" inkscape:connector-curvature="0" fill="#001189" d="M934.875,497.395
				c-31.06-13.273-45.837-48.368-33.008-78.387c12.831-30.019,48.408-43.593,79.466-30.32c31.058,13.275,45.837,48.371,33.008,78.39
				C1001.51,497.096,965.933,510.67,934.875,497.395L934.875,497.395z"/>
			<path id="path3088" inkscape:connector-curvature="0" fill="#001189" d="M807.736,558.81
				c-31.058-13.273-45.834-48.368-33.006-78.387c12.831-30.019,48.408-43.593,79.466-30.32
				c31.058,13.275,45.837,48.371,33.006,78.39C874.374,558.51,838.797,572.085,807.736,558.81L807.736,558.81z"/>
			<path id="path3090" inkscape:connector-curvature="0" fill="#001189" d="M706.133,494.056
				c-26.05-11.133-38.277-40.961-27.311-66.623c10.969-25.661,40.977-37.437,67.025-26.305
				c26.05,11.133,38.275,40.961,27.308,66.623S732.181,505.189,706.133,494.056z"/>
			<path id="path3092" inkscape:connector-curvature="0" fill="#001189" d="M824.719,428.225
				c-26.256-11.221-38.651-41.121-27.684-66.782c10.969-25.661,41.143-37.366,67.401-26.145
				c26.256,11.223,38.651,41.123,27.682,66.784C881.151,427.743,850.975,439.448,824.719,428.225z"/>
			<path id="path3094" inkscape:connector-curvature="0" fill="#001189" d="M918.451,348.292
				c-26.256-11.223-38.651-41.123-27.684-66.784s41.143-37.366,67.399-26.145c26.258,11.223,38.651,41.123,27.684,66.784
				S944.707,359.513,918.451,348.292z"/>
			<path id="path3096" inkscape:connector-curvature="0" fill="#001189" d="M827.961,315.715
				c-19.764-8.446-29.051-31.06-20.737-50.509c8.311-19.448,31.071-28.365,50.836-19.919c19.764,8.446,29.051,31.06,20.737,50.509
				C870.485,315.244,847.725,324.163,827.961,315.715L827.961,315.715z"/>
			<path id="path3098" inkscape:connector-curvature="0" fill="#001189" d="M732.181,390.958
				c-19.764-8.448-29.048-31.063-20.737-50.511c8.311-19.448,31.071-28.365,50.836-19.919c19.767,8.448,29.051,31.06,20.737,50.509
				C774.706,390.487,751.946,399.404,732.181,390.958z"/>
			<path id="path3100" inkscape:connector-curvature="0" fill="#001189" d="M746.21,309.208
				c-16.132-6.894-23.711-25.352-16.925-41.227c6.783-15.873,25.36-23.152,41.492-16.258c16.132,6.894,23.711,25.352,16.925,41.227
				C780.919,308.823,762.342,316.102,746.21,309.208z"/>
			<path id="path3102" inkscape:connector-curvature="0" fill="#001189" d="M671.86,317.703
				c-15.097-6.452-22.188-23.724-15.84-38.58c6.35-14.854,23.733-21.666,38.83-15.214c15.097,6.452,22.19,23.724,15.84,38.58
				C704.342,317.342,686.957,324.154,671.86,317.703L671.86,317.703z"/>
			<path id="path3104" inkscape:connector-curvature="0" fill="#001189" d="M641.467,377.659
				c-14.993-6.41-22.035-23.563-15.729-38.317c6.304-14.752,23.57-21.518,38.563-15.11c14.993,6.408,22.037,23.563,15.731,38.315
				C673.726,377.301,656.46,384.066,641.467,377.659z"/>
			<path id="path3106" inkscape:connector-curvature="0" fill="#001189" d="M603.913,459.126
				c-19.767-8.446-29.051-31.06-20.737-50.509c8.311-19.448,31.072-28.367,50.836-19.919c19.767,8.446,29.051,31.06,20.737,50.509
				C646.438,458.655,623.678,467.575,603.913,459.126z"/>
			<path id="path3108" inkscape:connector-curvature="0" fill="#001189" d="M549.734,384.21
				c-14.993-6.408-22.035-23.561-15.731-38.315c6.306-14.752,23.572-21.518,38.565-15.11c14.993,6.408,22.035,23.563,15.731,38.315
				C581.993,383.854,564.727,390.618,549.734,384.21L549.734,384.21z"/>
			<path id="path3110" inkscape:connector-curvature="0" fill="#001189" d="M521.513,449.314
				c-15.941-6.812-23.428-25.049-16.724-40.734s25.06-22.877,40.999-16.065c15.941,6.812,23.428,25.051,16.724,40.736
				C555.808,448.936,537.452,456.128,521.513,449.314z"/>
			<path id="path3112" inkscape:connector-curvature="0" fill="#001189" d="M595.239,331.656
				c-11.309-4.833-16.622-17.774-11.867-28.902c4.756-11.128,17.781-16.231,29.09-11.398c11.309,4.833,16.622,17.772,11.867,28.902
				C619.574,331.387,606.549,336.49,595.239,331.656z"/>
			<path id="path3114" inkscape:connector-curvature="0" fill="#001189" d="M491.045,392.081
				c-10.48-4.48-15.404-16.472-10.998-26.784c4.409-10.314,16.479-15.044,26.961-10.564c10.48,4.48,15.404,16.472,10.998,26.787
				C513.597,391.832,501.527,396.561,491.045,392.081z"/>
			<path id="path3116" inkscape:connector-curvature="0" fill="#001189" d="M446.895,450.196
				c-13.837-5.914-20.335-21.743-14.518-35.356c5.819-13.615,21.752-19.857,35.586-13.945c13.837,5.914,20.335,21.743,14.518,35.356
				C476.662,449.867,460.73,456.108,446.895,450.196z"/>
			<path id="path3118" inkscape:connector-curvature="0" fill="#001189" d="M398.949,479.034
				c-9.744-4.163-14.323-15.314-10.224-24.903c4.097-9.589,15.32-13.985,25.064-9.821c9.746,4.166,14.323,15.316,10.224,24.905
				C419.916,478.802,408.693,483.2,398.949,479.034z"/>
		</g>
	</g>
	<g id="g3221" transform="matrix(-0.50843058,0.86110298,-0.86110298,-0.50843058,152.52515,40.169071)">
		<g id="g3223">
			<path id="path3225" inkscape:connector-curvature="0" fill="#001189" d="M705.371-1194.892
				c-34.447-14.723-50.839-53.645-36.611-86.937s53.688-48.343,88.137-33.622c34.447,14.723,50.839,53.645,36.611,86.937
				C779.279-1195.221,739.817-1180.169,705.371-1194.892L705.371-1194.892z"/>
			<path id="path3227" inkscape:connector-curvature="0" fill="#001189" d="M616.692-1045.22
				c-40.375-17.257-59.587-62.876-42.91-101.897s62.926-56.663,103.302-39.408c40.375,17.257,59.587,62.876,42.91,101.897
				S657.068-1027.965,616.692-1045.22L616.692-1045.22z"/>
			<path id="path3229" inkscape:connector-curvature="0" fill="#001189" d="M466.44-953.023
				c-42.797-18.289-63.161-66.646-45.484-108.006c17.677-41.359,66.7-60.06,109.495-41.77
				c42.797,18.289,63.161,66.646,45.484,108.006S509.236-934.732,466.44-953.023z"/>
			<path id="path3231" inkscape:connector-curvature="0" fill="#001189" d="M513.805-1181.724
				c-38.322-16.376-56.555-59.677-40.729-96.712c15.83-37.034,59.727-53.781,98.046-37.403
				c38.321,16.379,56.555,59.677,40.727,96.713C596.022-1182.092,552.125-1165.345,513.805-1181.724z"/>
			<path id="path3233" inkscape:connector-curvature="0" fill="#001189" d="M611.597-1308.82
				c-31.058-13.275-45.67-48.76-32.633-79.261c13.035-30.5,48.781-44.465,79.837-31.192c31.06,13.274,45.67,48.76,32.635,79.26
				C678.399-1309.512,642.655-1295.548,611.597-1308.82L611.597-1308.82z"/>
			<path id="path3235" inkscape:connector-curvature="0" fill="#001189" d="M376.102-1108.859
				c-37.468-16.013-55.093-58.823-39.368-95.615c15.724-36.794,58.846-53.641,96.314-37.628
				c37.468,16.013,55.095,58.822,39.371,95.616C456.692-1109.693,413.571-1092.845,376.102-1108.859z"/>
			<path id="path3237" inkscape:connector-curvature="0" fill="#001189" d="M504.472-1388.973
				c-30.09-12.858-44.407-46.861-31.978-75.943c12.431-29.083,46.899-42.234,76.99-29.374s44.407,46.861,31.976,75.944
				C569.032-1389.263,534.563-1376.113,504.472-1388.973L504.472-1388.973z"/>
			<path id="path3239" inkscape:connector-curvature="0" fill="#001189" d="M406.957-1292.907
				c-31.06-13.274-45.837-48.369-33.006-78.388c12.828-30.018,48.408-43.592,79.464-30.319
				c31.06,13.274,45.837,48.369,33.008,78.387C473.593-1293.208,438.013-1279.634,406.957-1292.907L406.957-1292.907z"/>
			<path id="path3241" inkscape:connector-curvature="0" fill="#001189" d="M279.82-1231.492
				c-31.06-13.274-45.837-48.369-33.008-78.387c12.83-30.02,48.41-43.594,79.467-30.318c31.058,13.272,45.837,48.369,33.008,78.387
				C346.456-1231.793,310.88-1218.218,279.82-1231.492L279.82-1231.492z"/>
			<path id="path3243" inkscape:connector-curvature="0" fill="#001189" d="M178.214-1296.247
				c-26.048-11.131-38.276-40.96-27.309-66.621c10.967-25.661,40.975-37.437,67.026-26.305
				c26.049,11.133,38.276,40.96,27.307,66.622C234.271-1296.891,204.263-1285.114,178.214-1296.247z"/>
			<path id="path3245" inkscape:connector-curvature="0" fill="#001189" d="M296.802-1362.076
				c-26.256-11.222-38.651-41.121-27.684-66.782c10.967-25.661,41.143-37.367,67.398-26.145
				c26.258,11.221,38.653,41.12,27.684,66.782C353.234-1362.56,323.058-1350.854,296.802-1362.076z"/>
			<path id="path3247" inkscape:connector-curvature="0" fill="#001189" d="M390.534-1442.012
				c-26.258-11.221-38.65-41.12-27.684-66.782c10.967-25.661,41.144-37.365,67.399-26.143c26.258,11.221,38.65,41.119,27.683,66.78
				C446.965-1442.496,416.789-1430.791,390.534-1442.012L390.534-1442.012z"/>
			<path id="path3249" inkscape:connector-curvature="0" fill="#001189" d="M300.043-1474.587
				c-19.765-8.448-29.049-31.061-20.738-50.509c8.313-19.449,31.074-28.366,50.838-19.921c19.765,8.448,29.049,31.061,20.738,50.509
				C342.567-1475.058,319.806-1466.141,300.043-1474.587L300.043-1474.587z"/>
			<path id="path3251" inkscape:connector-curvature="0" fill="#001189" d="M204.264-1399.345
				c-19.765-8.448-29.049-31.061-20.738-50.509c8.313-19.449,31.074-28.366,50.838-19.921c19.765,8.448,29.049,31.061,20.736,50.51
				C246.788-1399.816,224.027-1390.899,204.264-1399.345z"/>
			<path id="path3253" inkscape:connector-curvature="0" fill="#001189" d="M218.291-1481.096
				c-16.131-6.894-23.709-25.351-16.925-41.224c6.784-15.876,25.362-23.155,41.493-16.26c16.132,6.896,23.71,25.353,16.926,41.226
				C253-1481.479,234.425-1474.201,218.291-1481.096z"/>
			<path id="path3255" inkscape:connector-curvature="0" fill="#001189" d="M143.943-1472.6
				c-15.097-6.451-22.188-23.724-15.841-38.58c6.35-14.855,23.735-21.666,38.832-15.215c15.097,6.451,22.188,23.724,15.838,38.579
				C176.425-1472.961,159.038-1466.148,143.943-1472.6z"/>
			<path id="path3257" inkscape:connector-curvature="0" fill="#001189" d="M113.551-1412.643
				c-14.993-6.41-22.036-23.563-15.732-38.316c6.307-14.754,23.571-21.518,38.564-15.111c14.993,6.407,22.036,23.563,15.732,38.316
				C145.809-1413.003,128.544-1406.236,113.551-1412.643z"/>
			<path id="path3259" inkscape:connector-curvature="0" fill="#001189" d="M75.995-1331.176
				c-19.764-8.446-29.049-31.061-20.737-50.507c8.313-19.449,31.073-28.368,50.838-19.921c19.765,8.448,29.049,31.061,20.736,50.51
				C118.521-1331.646,95.76-1322.729,75.995-1331.176z"/>
			<path id="path3261" inkscape:connector-curvature="0" fill="#001189" d="M21.817-1406.092
				c-14.993-6.407-22.036-23.563-15.731-38.314c6.305-14.753,23.57-21.52,38.564-15.111c14.993,6.407,22.035,23.561,15.731,38.314
				C54.077-1406.45,36.81-1399.685,21.817-1406.092z"/>
			<path id="path3263" inkscape:connector-curvature="0" fill="#001189" d="M-6.404-1340.988
				c-15.942-6.813-23.429-25.051-16.724-40.736c6.703-15.684,25.059-22.876,41.001-16.064c15.938,6.812,23.426,25.05,16.723,40.734
				C27.891-1341.368,9.535-1334.174-6.404-1340.988z"/>
			<path id="path3265" inkscape:connector-curvature="0" fill="#001189" d="M67.321-1458.646
				c-11.309-4.833-16.621-17.774-11.866-28.903c4.756-11.127,17.78-16.232,29.092-11.397c11.309,4.833,16.621,17.773,11.866,28.903
				C91.655-1458.915,78.631-1453.811,67.321-1458.646z"/>
			<path id="path3267" inkscape:connector-curvature="0" fill="#001189" d="M-36.872-1398.221
				c-10.482-4.48-15.406-16.473-10.996-26.787c4.407-10.313,16.477-15.041,26.959-10.562s15.405,16.471,10.998,26.786
				C-14.32-1398.469-26.39-1393.741-36.872-1398.221z"/>
			<path id="path3269" inkscape:connector-curvature="0" fill="#001189" d="M-81.022-1340.108
				c-13.836-5.912-20.335-21.743-14.516-35.357c5.817-13.613,21.75-19.857,35.585-13.942c13.836,5.912,20.335,21.743,14.518,35.356
				C-51.255-1340.437-67.187-1334.193-81.022-1340.108z"/>
			<path id="path3271" inkscape:connector-curvature="0" fill="#001189" d="M-128.968-1311.267
				c-9.744-4.166-14.322-15.315-10.224-24.904s15.319-13.985,25.065-9.821c9.744,4.166,14.322,15.315,10.224,24.904
				S-119.222-1307.103-128.968-1311.267z"/>
		</g>
	</g>
	<g id="g3267">
		<path id="rect3275" sodipodi:nodetypes="ccccccscccccccccccc" inkscape:connector-curvature="0" fill="#B60024" d="
			M395.073,1486.2v98.249v62.081v98.251v91.698h1.139c3.668,33.776,22.3,70.056,65.732,70.056h188.58v-93.122H492.469v-68.632
			H641.98v-98.251H492.469v-62.081h161.186V1486.2H492.469H395.073z"/>
		<path id="path3289" sodipodi:nodetypes="cccccccccccc" inkscape:connector-curvature="0" fill="#B60024" d="M733.128,1851.896
			c7.509,34.01,25,54.707,58.453,54.124h42.217v-165.619h135.308v-90.926H833.798v-72.526h151.544v-92.01H729.88L733.128,1851.896z"
			/>
		<path id="rect3291" sodipodi:nodetypes="cssccccc" inkscape:connector-curvature="0" fill="#B60024" d="M1060.038,1485.914
			v328.067c0,44.888,4.579,89.991,61.071,89.991h167.324v-89.991h-132.14v-328.067H1060.038z"/>
	</g>
</g>
</svg>
