<?xml version="1.0" encoding="UTF-8" standalone="no"?>
<!-- Created with Inkscape (http://www.inkscape.org/) -->

<svg xmlns:dc="http://purl.org/dc/elements/1.1/" xmlns:cc="http://creativecommons.org/ns#" xmlns:rdf="http://www.w3.org/1999/02/22-rdf-syntax-ns#" xmlns:svg="http://www.w3.org/2000/svg" xmlns="http://www.w3.org/2000/svg" xmlns:sodipodi="http://sodipodi.sourceforge.net/DTD/sodipodi-0.dtd" xmlns:inkscape="http://www.inkscape.org/namespaces/inkscape" id="svg2985" version="1.1" inkscape:version="0.48.5 r10040" width="786.28101" height="1160.2159" sodipodi:docname="EFL_logo_(shield).png">
  <metadata id="metadata2991">
    <rdf:RDF>
      <cc:Work rdf:about="">
        <dc:format>image/svg+xml</dc:format>
        <dc:type rdf:resource="http://purl.org/dc/dcmitype/StillImage" />
        <dc:title></dc:title>
      </cc:Work>
    </rdf:RDF>
  </metadata>
  <defs id="defs2989" />
  <sodipodi:namedview pagecolor="#ffffff" bordercolor="#666666" borderopacity="1" objecttolerance="10" gridtolerance="10" guidetolerance="10" inkscape:pageopacity="0" inkscape:pageshadow="2" inkscape:window-width="1366" inkscape:window-height="706" id="namedview2987" showgrid="false" fit-margin-top="0" fit-margin-left="0" fit-margin-right="0" fit-margin-bottom="0" inkscape:zoom="0.5" inkscape:cx="-220.2132" inkscape:cy="849.47659" inkscape:window-x="-8" inkscape:window-y="-8" inkscape:window-maximized="1" inkscape:current-layer="svg2985" />
  <g id="g3272" transform="matrix(9.1129996,0,0,9.1129996,-19.286948,-1.3156462)">
    <g id="g3012">
      <path sodipodi:nodetypes="cccssscccc" style="fill:#001983;fill-opacity:1;fill-rule:evenodd;stroke:none" d="m 2.1164215,0.14624183 0,43.12500017 0,39.5 0,1.53125 c 0,23.899858 19.2251515,43.156258 43.1250005,43.156258 23.899849,0 43.15625,-19.2564 43.15625,-43.156258 l 0,-1.53125 0,-39.5 0,-43.12500017 z" id="rect3003" inkscape:connector-curvature="0" />
      <path sodipodi:nodetypes="cccssscccc" inkscape:connector-curvature="0" id="path3010" d="m 2.9595588,0.14437027 0,43.52813273 0,38.728015 0,1.501324 c 0,23.432758 18.8494162,42.312818 42.2821682,42.312818 23.432752,0 42.312808,-18.88006 42.312808,-42.312818 l 0,-1.501324 0,-38.728015 0,-43.52813273 z" style="fill:white;fill-opacity:1;fill-rule:evenodd;stroke:none" />
    </g>
    <g style="fill:#001189;fill-opacity:1" id="g3297" transform="matrix(0.44167864,0,0,0.44167864,15.947552,12.592165)">
      <g style="fill:#001189;fill-opacity:1" id="g3044">
        <path style="fill:#001189;fill-opacity:1;fill-rule:evenodd;stroke:none" d="m 21.709949,39.451121 c 0,4.110823 -3.220629,7.443304 -7.193475,7.443304 -3.972847,0 -7.1934751,-3.332481 -7.1934751,-7.443304 0,-4.110824 3.2206281,-7.443305 7.1934751,-7.443305 3.972846,0 7.193475,3.332481 7.193475,7.443305 z" id="path2995" inkscape:connector-curvature="0" />
        <path inkscape:connector-curvature="0" id="path2998" d="m 41.133088,39.007232 c 0,4.818191 -3.774818,8.724107 -8.43129,8.724107 -4.656474,0 -8.43129,-3.905916 -8.43129,-8.724107 0,-4.818193 3.774816,-8.72411 8.43129,-8.72411 4.656472,0 8.43129,3.905917 8.43129,8.72411 z" style="fill:#001189;fill-opacity:1;fill-rule:evenodd;stroke:none" />
        <path style="fill:#001189;fill-opacity:1;fill-rule:evenodd;stroke:none" d="m 58.045485,48.736357 c 0,5.107076 -4.001145,9.247179 -8.936805,9.247179 -4.935662,0 -8.936805,-4.140103 -8.936805,-9.247179 0,-5.107077 4.001143,-9.247181 8.936805,-9.247181 4.93566,0 8.936805,4.140104 8.936805,9.247181 z" id="path3000" inkscape:connector-curvature="0" />
        <path inkscape:connector-curvature="0" id="path3002" d="m 33.370564,55.770945 c 0,4.573038 -3.582752,8.280218 -8.002298,8.280218 -4.419548,0 -8.002299,-3.70718 -8.002299,-8.280218 0,-4.573039 3.582751,-8.280219 8.002299,-8.280219 4.419546,0 8.002298,3.70718 8.002298,8.280219 z" style="fill:#001189;fill-opacity:1;fill-rule:evenodd;stroke:none" />
        <path inkscape:connector-curvature="0" id="path3004" d="m 15.691481,53.992502 c 0,3.706385 -2.95061,6.711004 -6.5903695,6.711004 -3.6397598,0 -6.5903683,-3.004619 -6.5903683,-6.711004 0,-3.706386 2.9506085,-6.711005 6.5903683,-6.711005 3.6397595,0 6.5903695,3.004619 6.5903695,6.711005 z" style="fill:#001189;fill-opacity:1;fill-rule:evenodd;stroke:none" />
        <path style="fill:#001189;fill-opacity:1;fill-rule:evenodd;stroke:none" d="m 48.331128,65.42035 c 0,4.471232 -3.559497,8.095883 -7.950355,8.095883 -4.390859,0 -7.950354,-3.624651 -7.950354,-8.095883 0,-4.471234 3.559495,-8.095885 7.950354,-8.095885 4.390858,0 7.950355,3.624651 7.950355,8.095885 z" id="path3006" inkscape:connector-curvature="0" />
        <path style="fill:#001189;fill-opacity:1;fill-rule:evenodd;stroke:none" d="m 14.032697,68.847727 c 0,3.590831 -2.813466,6.501775 -6.2840487,6.501775 -3.4705835,0 -6.2840476,-2.910944 -6.2840476,-6.501775 0,-3.590833 2.8134641,-6.501777 6.2840476,-6.501777 3.4705827,0 6.2840487,2.910944 6.2840487,6.501777 z" id="path3008" inkscape:connector-curvature="0" />
        <path inkscape:connector-curvature="0" id="path3010-9" d="m 28.873908,72.195384 c 0,3.706384 -2.904004,6.711003 -6.486271,6.711003 -3.582267,0 -6.486269,-3.004619 -6.486269,-6.711003 0,-3.706387 2.904002,-6.711006 6.486269,-6.711006 3.582267,0 6.486271,3.004619 6.486271,6.711006 z" style="fill:#001189;fill-opacity:1;fill-rule:evenodd;stroke:none" />
        <path style="fill:#001189;fill-opacity:1;fill-rule:evenodd;stroke:none" d="m 41.636847,80.355296 c 0,3.706384 -2.904004,6.711003 -6.486271,6.711003 -3.582267,0 -6.486269,-3.004619 -6.486269,-6.711003 0,-3.706387 2.904002,-6.711006 6.486269,-6.711006 3.582267,0 6.486271,3.004619 6.486271,6.711006 z" id="path3012" inkscape:connector-curvature="0" />
        <path inkscape:connector-curvature="0" id="path3014" d="m 40.799933,94.200624 c 0,3.108597 -2.482467,5.628614 -5.544742,5.628614 -3.062276,0 -5.544742,-2.520017 -5.544742,-5.628614 0,-3.1086 2.482466,-5.628617 5.544742,-5.628617 3.062275,0 5.544742,2.520017 5.544742,5.628617 z" style="fill:#001189;fill-opacity:1;fill-rule:evenodd;stroke:none" />
        <path style="fill:#001189;fill-opacity:1;fill-rule:evenodd;stroke:none" d="m 28.007968,86.294689 c 0,3.133311 -2.482467,5.673363 -5.544742,5.673363 -3.062276,0 -5.544742,-2.540052 -5.544742,-5.673363 0,-3.133314 2.482466,-5.673365 5.544742,-5.673365 3.062275,0 5.544742,2.540051 5.544742,5.673365 z" id="path3016" inkscape:connector-curvature="0" />
        <path inkscape:connector-curvature="0" id="path3018" d="m 15.075711,81.998853 c 0,3.133311 -2.482467,5.673363 -5.5447418,5.673363 -3.062276,0 -5.544742,-2.540052 -5.544742,-5.673363 0,-3.133314 2.482466,-5.673365 5.544742,-5.673365 3.0622748,0 5.5447418,2.540051 5.5447418,5.673365 z" style="fill:#001189;fill-opacity:1;fill-rule:evenodd;stroke:none" />
        <path style="fill:#001189;fill-opacity:1;fill-rule:evenodd;stroke:none" d="m 17.313126,92.230698 c 0,2.358615 -1.881432,4.270652 -4.202293,4.270652 -2.320863,0 -4.2022935,-1.912037 -4.2022935,-4.270652 0,-2.358618 1.8814305,-4.270654 4.2022935,-4.270654 2.320861,0 4.202293,1.912036 4.202293,4.270654 z" id="path3020" inkscape:connector-curvature="0" />
        <path inkscape:connector-curvature="0" id="path3022" d="m 29.037179,97.287255 c 0,2.358615 -1.881432,4.270655 -4.202293,4.270655 -2.320863,0 -4.202293,-1.91204 -4.202293,-4.270655 0,-2.358618 1.88143,-4.270654 4.202293,-4.270654 2.320861,0 4.202293,1.912036 4.202293,4.270654 z" style="fill:#001189;fill-opacity:1;fill-rule:evenodd;stroke:none" />
        <path style="fill:#001189;fill-opacity:1;fill-rule:evenodd;stroke:none" d="m 20.535003,100.22009 c 0,1.92512 -1.535639,3.48574 -3.429943,3.48574 -1.894305,0 -3.429942,-1.56062 -3.429942,-3.48574 0,-1.925122 1.535637,-3.48574 3.429942,-3.48574 1.894304,0 3.429943,1.560618 3.429943,3.48574 z" id="path3024" inkscape:connector-curvature="0" />
        <path inkscape:connector-curvature="0" id="path3026" d="m 25.374982,106.4401 c 0,1.80155 -1.43707,3.262 -3.209783,3.262 -1.772714,0 -3.209782,-1.46045 -3.209782,-3.262 0,-1.80155 1.437068,-3.262 3.209782,-3.262 1.772713,0 3.209783,1.46045 3.209783,3.262 z" style="fill:#001189;fill-opacity:1;fill-rule:evenodd;stroke:none" />
        <path style="fill:#001189;fill-opacity:1;fill-rule:evenodd;stroke:none" d="m 33.20665,105.7465 c 0,1.7892 -1.427213,3.23963 -3.187767,3.23963 -1.760555,0 -3.187766,-1.45043 -3.187766,-3.23963 0,-1.78919 1.427211,-3.23962 3.187766,-3.23962 1.760554,0 3.187767,1.45043 3.187767,3.23962 z" id="path3028" inkscape:connector-curvature="0" />
        <path style="fill:#001189;fill-opacity:1;fill-rule:evenodd;stroke:none" d="m 42.953898,104.89446 c 0,2.35862 -1.881432,4.27066 -4.202293,4.27066 -2.320863,0 -4.202293,-1.91204 -4.202293,-4.27066 0,-2.35861 1.88143,-4.27065 4.202293,-4.27065 2.320861,0 4.202293,1.91204 4.202293,4.27065 z" id="path3030" inkscape:connector-curvature="0" />
        <path inkscape:connector-curvature="0" id="path3032" d="m 38.576445,114.20393 c 0,1.7892 -1.427213,3.23963 -3.187767,3.23963 -1.760555,0 -3.187766,-1.45043 -3.187766,-3.23963 0,-1.78919 1.427211,-3.23962 3.187766,-3.23962 1.760554,0 3.187767,1.45043 3.187767,3.23962 z" style="fill:#001189;fill-opacity:1;fill-rule:evenodd;stroke:none" />
        <path style="fill:#001189;fill-opacity:1;fill-rule:evenodd;stroke:none" d="m 46.810131,113.46886 c 0,1.90222 -1.517369,3.44428 -3.389135,3.44428 -1.871767,0 -3.389133,-1.54206 -3.389133,-3.44428 0,-1.90221 1.517366,-3.44426 3.389133,-3.44426 1.871766,0 3.389135,1.54205 3.389135,3.44426 z" id="path3034" inkscape:connector-curvature="0" />
        <path style="fill:#001189;fill-opacity:1;fill-rule:evenodd;stroke:none" d="m 31.192976,112.51313 c 0,1.34967 -1.076609,2.44379 -2.404672,2.44379 -1.328063,0 -2.404671,-1.09412 -2.404671,-2.44379 0,-1.34967 1.076608,-2.44379 2.404671,-2.44379 1.328063,0 2.404672,1.09412 2.404672,2.44379 z" id="path3036" inkscape:connector-curvature="0" />
        <path inkscape:connector-curvature="0" id="path3038" d="m 42.65427,119.27012 c 0,1.25081 -0.997754,2.26479 -2.228544,2.26479 -1.23079,0 -2.228543,-1.01398 -2.228543,-2.26479 0,-1.25082 0.997753,-2.2648 2.228543,-2.2648 1.23079,0 2.228544,1.01398 2.228544,2.2648 z" style="fill:#001189;fill-opacity:1;fill-rule:evenodd;stroke:none" />
        <path style="fill:#001189;fill-opacity:1;fill-rule:evenodd;stroke:none" d="m 50.658485,119.95008 c 0,1.65106 -1.317023,2.98951 -2.941652,2.98951 -1.624629,0 -2.94165,-1.33845 -2.94165,-2.98951 0,-1.65105 1.317021,-2.9895 2.94165,-2.9895 1.624629,0 2.941652,1.33845 2.941652,2.9895 z" id="path3040" inkscape:connector-curvature="0" />
        <path style="fill:#001189;fill-opacity:1;fill-rule:evenodd;stroke:none" d="m 55.989262,123.00405 c 0,1.16291 -0.927633,2.10563 -2.071925,2.10563 -1.144292,0 -2.071924,-0.94272 -2.071924,-2.10563 0,-1.16291 0.927632,-2.10563 2.071924,-2.10563 1.144292,0 2.071925,0.94272 2.071925,2.10563 z" id="path3042" inkscape:connector-curvature="0" />
      </g>
      <g style="fill:#001189;fill-opacity:1" id="g3194">
        <g style="fill:#001189;fill-opacity:1" id="g3168">
          <path style="fill:#001189;fill-opacity:1;fill-rule:evenodd;stroke:none" d="m 107.9801,40.282116 c -3.78006,-1.615539 -5.57872,-5.88669 -4.0174,-9.53988 1.56131,-3.653192 5.89136,-5.305035 9.67142,-3.689496 3.78007,1.615539 5.57873,5.886689 4.01741,9.539881 -1.56131,3.65319 -5.89136,5.305034 -9.67143,3.689495 z" id="path3072" inkscape:connector-curvature="0" />
          <path inkscape:connector-curvature="0" id="path3074" d="m 98.24915,56.705976 c -4.430519,-1.893532 -6.538675,-6.899639 -4.708698,-11.181451 1.829978,-4.281814 6.905118,-6.217897 11.335638,-4.324365 4.43052,1.893533 6.53868,6.899639 4.7087,11.181453 -1.82998,4.281812 -6.90512,6.217896 -11.33564,4.324363 z" style="fill:#001189;fill-opacity:1;fill-rule:evenodd;stroke:none" />
          <path style="fill:#001189;fill-opacity:1;fill-rule:evenodd;stroke:none" d="m 81.761353,66.823151 c -4.696161,-2.007063 -6.930715,-7.313322 -4.991018,-11.851858 1.939697,-4.538539 7.319123,-6.590704 12.015283,-4.583641 4.696162,2.007063 6.930718,7.31332 4.99102,11.851859 -1.939697,4.538537 -7.319124,6.590703 -12.015285,4.58364 z" id="path3076" inkscape:connector-curvature="0" />
          <path inkscape:connector-curvature="0" id="path3078" d="m 86.958848,41.726992 c -4.205091,-1.797188 -6.205982,-6.54858 -4.469116,-10.612529 1.736867,-4.063951 6.553775,-5.901525 10.758867,-4.104338 4.205092,1.797189 6.205984,6.54858 4.469117,10.612531 -1.736866,4.063949 -6.553775,5.901524 -10.758868,4.104336 z" style="fill:#001189;fill-opacity:1;fill-rule:evenodd;stroke:none" />
          <path inkscape:connector-curvature="0" id="path3080" d="m 97.689933,27.780229 c -3.408169,-1.456596 -5.011457,-5.350604 -3.581044,-8.697508 1.430412,-3.346905 5.352858,-4.879303 8.761031,-3.422706 3.40817,1.456596 5.01146,5.350603 3.58105,8.697507 -1.43041,3.346905 -5.35287,4.879304 -8.761037,3.422707 z" style="fill:#001189;fill-opacity:1;fill-rule:evenodd;stroke:none" />
          <path style="fill:#001189;fill-opacity:1;fill-rule:evenodd;stroke:none" d="m 71.8484,49.722722 c -4.111477,-1.757179 -6.045618,-6.454753 -4.320027,-10.492323 1.725592,-4.03757 6.457473,-5.886193 10.568949,-4.129015 4.111479,1.757179 6.045621,6.454752 4.320029,10.492323 -1.725591,4.037569 -6.457473,5.886194 -10.568951,4.129015 z" id="path3082" inkscape:connector-curvature="0" />
          <path style="fill:#001189;fill-opacity:1;fill-rule:evenodd;stroke:none" d="m 85.934809,18.984915 c -3.301913,-1.411184 -4.87296,-5.142269 -3.509033,-8.333609 1.363927,-3.1913402 5.146338,-4.6344422 8.448251,-3.2232583 3.301914,1.4111847 4.872962,5.1422683 3.509035,8.3336083 -1.363927,3.19134 -5.146338,4.634444 -8.448253,3.223259 z" id="path3084" inkscape:connector-curvature="0" />
          <path inkscape:connector-curvature="0" id="path3086" d="m 75.234029,29.526453 c -3.408168,-1.456596 -5.029772,-5.307749 -3.621954,-8.601786 1.407818,-3.294038 5.311948,-4.78358 8.720117,-3.326983 3.408171,1.456597 5.029775,5.307747 3.621957,8.601785 -1.407818,3.294038 -5.311949,4.783581 -8.72012,3.326984 z" style="fill:#001189;fill-opacity:1;fill-rule:evenodd;stroke:none" />
          <path style="fill:#001189;fill-opacity:1;fill-rule:evenodd;stroke:none" d="m 61.282929,36.265737 c -3.408168,-1.456596 -5.029772,-5.307748 -3.621954,-8.601786 1.407818,-3.294038 5.311948,-4.783579 8.720116,-3.326983 3.408171,1.456597 5.029776,5.307747 3.621958,8.601785 -1.407819,3.294038 -5.311949,4.783581 -8.72012,3.326984 z" id="path3088" inkscape:connector-curvature="0" />
          <path inkscape:connector-curvature="0" id="path3090" d="m 50.133452,29.16003 c -2.858479,-1.221668 -4.200134,-4.494753 -2.996671,-7.310638 1.203464,-2.815885 4.49632,-4.108254 7.3548,-2.886586 2.858481,1.221669 4.200138,4.494753 2.996674,7.310639 -1.203463,2.815884 -4.496321,4.108254 -7.354803,2.886585 z" style="fill:#001189;fill-opacity:1;fill-rule:evenodd;stroke:none" />
          <path style="fill:#001189;fill-opacity:1;fill-rule:evenodd;stroke:none" d="m 63.146446,21.936257 c -2.881205,-1.23138 -4.241283,-4.512339 -3.03782,-7.328224 1.203463,-2.815885 4.514743,-4.10038 7.395948,-2.869 2.881207,1.231381 4.241285,4.512339 3.037822,7.328225 -1.203463,2.815884 -4.514743,4.100381 -7.39595,2.868999 z" id="path3092" inkscape:connector-curvature="0" />
          <path inkscape:connector-curvature="0" id="path3094" d="m 73.431922,13.164723 c -2.881205,-1.23138 -4.241283,-4.5123391 -3.03782,-7.3282232 1.203464,-2.8158852 4.514743,-4.1003805 7.395948,-2.8690003 2.881208,1.2313813 4.241286,4.5123391 3.037822,7.3282245 -1.203463,2.815884 -4.514742,4.100381 -7.39595,2.868999 z" style="fill:#001189;fill-opacity:1;fill-rule:evenodd;stroke:none" />
          <path style="fill:#001189;fill-opacity:1;fill-rule:evenodd;stroke:none" d="m 63.502021,9.5900982 c -2.16884,-0.9269274 -3.187639,-3.4084031 -2.275549,-5.5425276 0.912091,-2.1341263 3.409681,-3.11275311 5.578522,-2.1858257 2.168844,0.9269285 3.187642,3.4084025 2.275551,5.5425288 -0.91209,2.1341245 -3.40968,3.1127533 -5.578524,2.1858245 z" id="path3096" inkscape:connector-curvature="0" />
          <path inkscape:connector-curvature="0" id="path3098" d="M 52.991852,17.846645 C 50.823011,16.919718 49.80421,14.438241 50.7163,12.304116 c 0.912091,-2.134126 3.409683,-3.1127511 5.578524,-2.185824 2.168844,0.926929 3.187642,3.408402 2.275551,5.542529 -0.91209,2.134124 -3.40968,3.112753 -5.578523,2.185824 z" style="fill:#001189;fill-opacity:1;fill-rule:evenodd;stroke:none" />
          <path style="fill:#001189;fill-opacity:1;fill-rule:evenodd;stroke:none" d="M 54.531284,8.8759606 C 52.761059,8.1193952 51.929507,6.0939956 52.673962,4.3521073 53.418417,2.6102181 55.45697,1.8114567 57.227194,2.568022 c 1.770227,0.7565662 2.601778,2.7819631 1.857323,4.5238524 -0.744455,1.7418882 -2.783007,2.5406523 -4.553233,1.7840862 z" id="path3100" inkscape:connector-curvature="0" />
          <path inkscape:connector-curvature="0" id="path3102" d="M 46.372662,9.8081137 C 44.716065,9.1001109 43.937886,7.2047159 44.634556,5.5746354 45.331227,3.944554 47.238931,3.1970642 48.895529,3.905067 c 1.656597,0.7080028 2.434776,2.603396 1.738106,4.2334774 -0.69667,1.6300804 -2.604376,2.3775726 -4.260973,1.6695693 z" style="fill:#001189;fill-opacity:1;fill-rule:evenodd;stroke:none" />
          <path style="fill:#001189;fill-opacity:1;fill-rule:evenodd;stroke:none" d="m 43.037671,16.387262 c -1.645241,-0.703149 -2.418079,-2.585543 -1.726188,-4.204442 0.691892,-1.618901 2.586509,-2.3612647 4.23175,-1.658115 1.645232,0.703145 2.418071,2.585536 1.72618,4.204437 -0.691892,1.6189 -2.58651,2.361265 -4.231742,1.65812 z" id="path3104" inkscape:connector-curvature="0" />
          <path style="fill:#001189;fill-opacity:1;fill-rule:evenodd;stroke:none" d="m 38.916563,25.327109 c -2.168845,-0.926929 -3.187646,-3.408406 -2.275556,-5.542531 0.912091,-2.134126 3.409683,-3.112751 5.578529,-2.185822 2.168836,0.926926 3.187638,3.408401 2.275547,5.542527 -0.91209,2.134124 -3.409684,3.112751 -5.57852,2.185826 z" id="path3106" inkscape:connector-curvature="0" />
          <path inkscape:connector-curvature="0" id="path3108" d="m 32.971423,17.106297 c -1.645241,-0.703149 -2.41808,-2.585542 -1.726188,-4.204442 0.691892,-1.618901 2.586509,-2.361265 4.23175,-1.658115 1.645231,0.703145 2.418071,2.585536 1.726179,4.204437 -0.691891,1.6189 -2.586509,2.361265 -4.231741,1.65812 z" style="fill:#001189;fill-opacity:1;fill-rule:evenodd;stroke:none" />
          <path style="fill:#001189;fill-opacity:1;fill-rule:evenodd;stroke:none" d="m 29.87456,24.250407 c -1.749168,-0.747565 -2.570833,-2.748871 -1.835236,-4.470035 0.735598,-1.721164 2.749904,-2.510419 4.499071,-1.762853 1.749158,0.747562 2.570815,2.748861 1.835217,4.470025 -0.735597,1.721164 -2.749894,2.510425 -4.499052,1.762863 z" id="path3110" inkscape:connector-curvature="0" />
          <path style="fill:#001189;fill-opacity:1;fill-rule:evenodd;stroke:none" d="m 37.964837,11.339367 c -1.241075,-0.530415 -1.824059,-1.9503859 -1.302135,-3.1715929 0.521924,-1.221207 1.951115,-1.7812058 3.19219,-1.2507903 1.241076,0.5304156 1.82406,1.950385 1.302135,3.1715922 -0.521924,1.221207 -1.951114,1.781207 -3.19219,1.250791 z" id="path3112" inkscape:connector-curvature="0" />
          <path inkscape:connector-curvature="0" id="path3114" d="m 26.531294,17.970059 c -1.15017,-0.491563 -1.690451,-1.807529 -1.206755,-2.939289 0.483696,-1.131761 1.808204,-1.650744 2.958374,-1.15918 1.150179,0.491568 1.690461,1.807532 1.206765,2.939293 -0.483696,1.13176 -1.808205,1.650744 -2.958384,1.159176 z" style="fill:#001189;fill-opacity:1;fill-rule:evenodd;stroke:none" />
          <path style="fill:#001189;fill-opacity:1;fill-rule:evenodd;stroke:none" d="m 21.686457,24.34706 c -1.518216,-0.64886 -2.23139,-2.385922 -1.592915,-3.879833 0.638473,-1.493912 2.386816,-2.178959 3.905032,-1.530098 1.518206,0.648857 2.23138,2.385916 1.592907,3.879828 -0.638474,1.493911 -2.386817,2.17896 -3.905024,1.530103 z" id="path3116" inkscape:connector-curvature="0" />
          <path style="fill:#001189;fill-opacity:1;fill-rule:evenodd;stroke:none" d="m 16.425246,27.511744 c -1.069342,-0.457019 -1.571654,-1.6805 -1.121952,-2.732723 0.449703,-1.052222 1.681128,-1.534731 2.75047,-1.077711 1.069342,0.457019 1.571655,1.680499 1.121952,2.732722 -0.449703,1.052222 -1.681128,1.534732 -2.75047,1.077712 z" id="path3118" inkscape:connector-curvature="0" />
        </g>
      </g>
      <g style="fill:#001189;fill-opacity:1" transform="matrix(-0.50843058,0.86110298,-0.86110298,-0.50843058,152.52515,40.169071)" id="g3221">
        <g style="fill:#001189;fill-opacity:1" id="g3223">
          <path inkscape:connector-curvature="0" id="path3225" d="m 107.9801,40.282116 c -3.78006,-1.615539 -5.57872,-5.88669 -4.0174,-9.53988 1.56131,-3.653192 5.89136,-5.305035 9.67142,-3.689496 3.78007,1.615539 5.57873,5.886689 4.01741,9.539881 -1.56131,3.65319 -5.89136,5.305034 -9.67143,3.689495 z" style="fill:#001189;fill-opacity:1;fill-rule:evenodd;stroke:none" />
          <path style="fill:#001189;fill-opacity:1;fill-rule:evenodd;stroke:none" d="m 98.24915,56.705976 c -4.430519,-1.893532 -6.538675,-6.899639 -4.708698,-11.181451 1.829978,-4.281814 6.905118,-6.217897 11.335638,-4.324365 4.43052,1.893533 6.53868,6.899639 4.7087,11.181453 -1.82998,4.281812 -6.90512,6.217896 -11.33564,4.324363 z" id="path3227" inkscape:connector-curvature="0" />
          <path inkscape:connector-curvature="0" id="path3229" d="m 81.761353,66.823151 c -4.696161,-2.007063 -6.930715,-7.313322 -4.991018,-11.851858 1.939697,-4.538539 7.319123,-6.590704 12.015283,-4.583641 4.696162,2.007063 6.930718,7.31332 4.99102,11.851859 -1.939697,4.538537 -7.319124,6.590703 -12.015285,4.58364 z" style="fill:#001189;fill-opacity:1;fill-rule:evenodd;stroke:none" />
          <path style="fill:#001189;fill-opacity:1;fill-rule:evenodd;stroke:none" d="m 86.958848,41.726992 c -4.205091,-1.797188 -6.205982,-6.54858 -4.469116,-10.612529 1.736867,-4.063951 6.553775,-5.901525 10.758867,-4.104338 4.205092,1.797189 6.205984,6.54858 4.469117,10.612531 -1.736866,4.063949 -6.553775,5.901524 -10.758868,4.104336 z" id="path3231" inkscape:connector-curvature="0" />
          <path style="fill:#001189;fill-opacity:1;fill-rule:evenodd;stroke:none" d="m 97.689933,27.780229 c -3.408169,-1.456596 -5.011457,-5.350604 -3.581044,-8.697508 1.430412,-3.346905 5.352858,-4.879303 8.761031,-3.422706 3.40817,1.456596 5.01146,5.350603 3.58105,8.697507 -1.43041,3.346905 -5.35287,4.879304 -8.761037,3.422707 z" id="path3233" inkscape:connector-curvature="0" />
          <path inkscape:connector-curvature="0" id="path3235" d="m 71.8484,49.722722 c -4.111477,-1.757179 -6.045618,-6.454753 -4.320027,-10.492323 1.725592,-4.03757 6.457473,-5.886193 10.568949,-4.129015 4.111479,1.757179 6.045621,6.454752 4.320029,10.492323 -1.725591,4.037569 -6.457473,5.886194 -10.568951,4.129015 z" style="fill:#001189;fill-opacity:1;fill-rule:evenodd;stroke:none" />
          <path inkscape:connector-curvature="0" id="path3237" d="m 85.934809,18.984915 c -3.301913,-1.411184 -4.87296,-5.142269 -3.509033,-8.333609 1.363927,-3.1913402 5.146338,-4.6344422 8.448251,-3.2232583 3.301914,1.4111847 4.872962,5.1422683 3.509035,8.3336083 -1.363927,3.19134 -5.146338,4.634444 -8.448253,3.223259 z" style="fill:#001189;fill-opacity:1;fill-rule:evenodd;stroke:none" />
          <path style="fill:#001189;fill-opacity:1;fill-rule:evenodd;stroke:none" d="m 75.234029,29.526453 c -3.408168,-1.456596 -5.029772,-5.307749 -3.621954,-8.601786 1.407818,-3.294038 5.311948,-4.78358 8.720117,-3.326983 3.408171,1.456597 5.029775,5.307747 3.621957,8.601785 -1.407818,3.294038 -5.311949,4.783581 -8.72012,3.326984 z" id="path3239" inkscape:connector-curvature="0" />
          <path inkscape:connector-curvature="0" id="path3241" d="m 61.282929,36.265737 c -3.408168,-1.456596 -5.029772,-5.307748 -3.621954,-8.601786 1.407818,-3.294038 5.311948,-4.783579 8.720116,-3.326983 3.408171,1.456597 5.029776,5.307747 3.621958,8.601785 -1.407819,3.294038 -5.311949,4.783581 -8.72012,3.326984 z" style="fill:#001189;fill-opacity:1;fill-rule:evenodd;stroke:none" />
          <path style="fill:#001189;fill-opacity:1;fill-rule:evenodd;stroke:none" d="m 50.133452,29.16003 c -2.858479,-1.221668 -4.200134,-4.494753 -2.996671,-7.310638 1.203464,-2.815885 4.49632,-4.108254 7.3548,-2.886586 2.858481,1.221669 4.200138,4.494753 2.996674,7.310639 -1.203463,2.815884 -4.496321,4.108254 -7.354803,2.886585 z" id="path3243" inkscape:connector-curvature="0" />
          <path inkscape:connector-curvature="0" id="path3245" d="m 63.146446,21.936257 c -2.881205,-1.23138 -4.241283,-4.512339 -3.03782,-7.328224 1.203463,-2.815885 4.514743,-4.10038 7.395948,-2.869 2.881207,1.231381 4.241285,4.512339 3.037822,7.328225 -1.203463,2.815884 -4.514743,4.100381 -7.39595,2.868999 z" style="fill:#001189;fill-opacity:1;fill-rule:evenodd;stroke:none" />
          <path style="fill:#001189;fill-opacity:1;fill-rule:evenodd;stroke:none" d="m 73.431922,13.164723 c -2.881205,-1.23138 -4.241283,-4.5123391 -3.03782,-7.3282232 1.203464,-2.8158852 4.514743,-4.1003805 7.395948,-2.8690003 2.881208,1.2313813 4.241286,4.5123391 3.037822,7.3282245 -1.203463,2.815884 -4.514742,4.100381 -7.39595,2.868999 z" id="path3247" inkscape:connector-curvature="0" />
          <path inkscape:connector-curvature="0" id="path3249" d="m 63.502021,9.5900982 c -2.16884,-0.9269274 -3.187639,-3.4084031 -2.275549,-5.5425276 0.912091,-2.1341263 3.409681,-3.11275311 5.578522,-2.1858257 2.168844,0.9269285 3.187642,3.4084025 2.275551,5.5425288 -0.91209,2.1341245 -3.40968,3.1127533 -5.578524,2.1858245 z" style="fill:#001189;fill-opacity:1;fill-rule:evenodd;stroke:none" />
          <path style="fill:#001189;fill-opacity:1;fill-rule:evenodd;stroke:none" d="M 52.991852,17.846645 C 50.823011,16.919718 49.80421,14.438241 50.7163,12.304116 c 0.912091,-2.134126 3.409683,-3.1127511 5.578524,-2.185824 2.168844,0.926929 3.187642,3.408402 2.275551,5.542529 -0.91209,2.134124 -3.40968,3.112753 -5.578523,2.185824 z" id="path3251" inkscape:connector-curvature="0" />
          <path inkscape:connector-curvature="0" id="path3253" d="M 54.531284,8.8759606 C 52.761059,8.1193952 51.929507,6.0939956 52.673962,4.3521073 53.418417,2.6102181 55.45697,1.8114567 57.227194,2.568022 c 1.770227,0.7565662 2.601778,2.7819631 1.857323,4.5238524 -0.744455,1.7418882 -2.783007,2.5406523 -4.553233,1.7840862 z" style="fill:#001189;fill-opacity:1;fill-rule:evenodd;stroke:none" />
          <path style="fill:#001189;fill-opacity:1;fill-rule:evenodd;stroke:none" d="M 46.372662,9.8081137 C 44.716065,9.1001109 43.937886,7.2047159 44.634556,5.5746354 45.331227,3.944554 47.238931,3.1970642 48.895529,3.905067 c 1.656597,0.7080028 2.434776,2.603396 1.738106,4.2334774 -0.69667,1.6300804 -2.604376,2.3775726 -4.260973,1.6695693 z" id="path3255" inkscape:connector-curvature="0" />
          <path inkscape:connector-curvature="0" id="path3257" d="m 43.037671,16.387262 c -1.645241,-0.703149 -2.418079,-2.585543 -1.726188,-4.204442 0.691892,-1.618901 2.586509,-2.3612647 4.23175,-1.658115 1.645232,0.703145 2.418071,2.585536 1.72618,4.204437 -0.691892,1.6189 -2.58651,2.361265 -4.231742,1.65812 z" style="fill:#001189;fill-opacity:1;fill-rule:evenodd;stroke:none" />
          <path inkscape:connector-curvature="0" id="path3259" d="m 38.916563,25.327109 c -2.168845,-0.926929 -3.187646,-3.408406 -2.275556,-5.542531 0.912091,-2.134126 3.409683,-3.112751 5.578529,-2.185822 2.168836,0.926926 3.187638,3.408401 2.275547,5.542527 -0.91209,2.134124 -3.409684,3.112751 -5.57852,2.185826 z" style="fill:#001189;fill-opacity:1;fill-rule:evenodd;stroke:none" />
          <path style="fill:#001189;fill-opacity:1;fill-rule:evenodd;stroke:none" d="m 32.971423,17.106297 c -1.645241,-0.703149 -2.41808,-2.585542 -1.726188,-4.204442 0.691892,-1.618901 2.586509,-2.361265 4.23175,-1.658115 1.645231,0.703145 2.418071,2.585536 1.726179,4.204437 -0.691891,1.6189 -2.586509,2.361265 -4.231741,1.65812 z" id="path3261" inkscape:connector-curvature="0" />
          <path inkscape:connector-curvature="0" id="path3263" d="m 29.87456,24.250407 c -1.749168,-0.747565 -2.570833,-2.748871 -1.835236,-4.470035 0.735598,-1.721164 2.749904,-2.510419 4.499071,-1.762853 1.749158,0.747562 2.570815,2.748861 1.835217,4.470025 -0.735597,1.721164 -2.749894,2.510425 -4.499052,1.762863 z" style="fill:#001189;fill-opacity:1;fill-rule:evenodd;stroke:none" />
          <path inkscape:connector-curvature="0" id="path3265" d="m 37.964837,11.339367 c -1.241075,-0.530415 -1.824059,-1.9503859 -1.302135,-3.1715929 0.521924,-1.221207 1.951115,-1.7812058 3.19219,-1.2507903 1.241076,0.5304156 1.82406,1.950385 1.302135,3.1715922 -0.521924,1.221207 -1.951114,1.781207 -3.19219,1.250791 z" style="fill:#001189;fill-opacity:1;fill-rule:evenodd;stroke:none" />
          <path style="fill:#001189;fill-opacity:1;fill-rule:evenodd;stroke:none" d="m 26.531294,17.970059 c -1.15017,-0.491563 -1.690451,-1.807529 -1.206755,-2.939289 0.483696,-1.131761 1.808204,-1.650744 2.958374,-1.15918 1.150179,0.491568 1.690461,1.807532 1.206765,2.939293 -0.483696,1.13176 -1.808205,1.650744 -2.958384,1.159176 z" id="path3267" inkscape:connector-curvature="0" />
          <path inkscape:connector-curvature="0" id="path3269" d="m 21.686457,24.34706 c -1.518216,-0.64886 -2.23139,-2.385922 -1.592915,-3.879833 0.638473,-1.493912 2.386816,-2.178959 3.905032,-1.530098 1.518206,0.648857 2.23138,2.385916 1.592907,3.879828 -0.638474,1.493911 -2.386817,2.17896 -3.905024,1.530103 z" style="fill:#001189;fill-opacity:1;fill-rule:evenodd;stroke:none" />
          <path inkscape:connector-curvature="0" id="path3271" d="m 16.425246,27.511744 c -1.069342,-0.457019 -1.571654,-1.6805 -1.121952,-2.732723 0.449703,-1.052222 1.681128,-1.534731 2.75047,-1.077711 1.069342,0.457019 1.571655,1.680499 1.121952,2.732722 -0.449703,1.052222 -1.681128,1.534732 -2.75047,1.077712 z" style="fill:#001189;fill-opacity:1;fill-rule:evenodd;stroke:none" />
        </g>
      </g>
      <g style="fill:#b60024;fill-opacity:1" id="g3267">
        <path style="fill:#b60024;fill-opacity:1;fill-rule:evenodd;stroke:none" d="m 16,138.03125 0,10.78125 0,6.8125 0,10.78125 0,10.0625 0.125,0 c 0.402319,3.70628 2.447016,7.6875 7.212858,7.6875 l 20.693392,0 0,-10.21875 -17.34375,0 0,-7.53125 16.40625,0 0,-10.78125 -16.40625,0 0,-6.8125 17.6875,0 0,-10.78125 -17.6875,0 z" id="rect3275" inkscape:connector-curvature="0" sodipodi:nodetypes="ccccccscccccccccccc" />
        <path style="fill:#b60024;fill-opacity:1;stroke:none" d="m 53.095802,178.16035 c 0.823801,3.73209 2.743188,6.0034 6.414258,5.93913 l 4.63252,0 0,-18.17373 14.847819,0 0,-9.97774 -14.847819,0 0,-7.95843 16.629557,0 0,-10.09651 -28.032683,0 z" id="path3289" inkscape:connector-curvature="0" sodipodi:nodetypes="cccccccccccc" />
        <path style="fill:#b60024;fill-opacity:1;fill-rule:evenodd;stroke:none" d="m 88.96875,138 0,36 c 0,4.92559 0.502449,9.875 6.701663,9.875 l 18.360837,0 0,-9.875 -14.5,0 0,-36 z" id="rect3291" inkscape:connector-curvature="0" sodipodi:nodetypes="cssccccc" />
      </g>
    </g>
  </g>
</svg>
